<svg width="63" height="63" viewBox="0 0 63 63" fill="none" xmlns="http://www.w3.org/2000/svg">
<path d="M35.4384 59.5572H27.5615C27.0674 59.5572 26.6069 59.3101 26.333 58.8997L4.67768 26.4153C4.38063 25.9692 4.34795 25.3973 4.59308 24.9205L11.228 12.0351C11.4818 11.543 11.9884 11.2344 12.5411 11.2344H33.4687C34.2839 11.2344 34.9453 11.8958 34.9453 12.7109C34.9453 13.5261 34.2839 14.1875 33.4687 14.1875H13.4419L7.61638 25.5001L28.3517 56.6041H34.6482L49.111 34.9103C49.5638 34.2317 50.4799 34.048 51.1586 34.5008C51.8373 34.9536 52.0209 35.8697 51.5681 36.5484L36.667 58.8997C36.393 59.3101 35.9326 59.5572 35.4384 59.5572Z" fill="#FEBD19"/>
<path d="M33.4688 27.0703H5.90625C5.09107 27.0703 4.42969 26.4089 4.42969 25.5938C4.42969 24.7786 5.09107 24.1172 5.90625 24.1172H33.4688C34.2839 24.1172 34.9453 24.7786 34.9453 25.5938C34.9453 26.4089 34.2839 27.0703 33.4688 27.0703Z" fill="#FEBD19"/>
<path d="M7.58849 13.2875C7.3174 13.2875 7.04343 13.2135 6.7983 13.0578L4.13069 11.364C3.44239 10.9266 3.2386 10.0143 3.67503 9.326C4.11338 8.6377 5.02663 8.43391 5.71299 8.87034L8.38061 10.5642C9.0689 11.0016 9.2727 11.9138 8.83626 12.6021C8.55461 13.0453 8.07684 13.2875 7.58849 13.2875Z" fill="#FEBD19"/>
<path d="M12.8993 8.80996C12.336 8.80996 11.7977 8.48601 11.5516 7.93998L10.4663 5.52903C10.1318 4.78498 10.4634 3.91116 11.2065 3.57566C11.9505 3.24113 12.8253 3.57277 13.1599 4.31586L14.2452 6.72681C14.5797 7.47086 14.2481 8.34468 13.505 8.68018C13.3079 8.76862 13.1022 8.80996 12.8993 8.80996Z" fill="#FEBD19"/>
<path d="M8.85875 50.5557C8.19737 50.5557 7.5956 50.1087 7.42737 49.4386C7.22934 48.6475 7.70999 47.8448 8.50018 47.6468L12.181 46.7239C12.9799 46.5269 13.7739 47.0066 13.9729 47.7967C14.1709 48.5879 13.6903 49.3906 12.9001 49.5886L9.21924 50.5115C9.09811 50.5413 8.97699 50.5557 8.85875 50.5557Z" fill="#FEBD19"/>
<path d="M13.9464 56.6036C13.5138 56.6036 13.085 56.4142 12.7938 56.0508C12.2833 55.4145 12.3852 54.4849 13.0216 53.9754L15.3335 52.122C15.9718 51.6106 16.9004 51.7144 17.409 52.3498C17.9194 52.9862 17.8175 53.9158 17.1811 54.4253L14.8692 56.2787C14.5962 56.4978 14.2703 56.6036 13.9464 56.6036Z" fill="#FEBD19"/>
<path d="M21.9081 27.0725H21.8994C21.4294 27.0696 20.9891 26.8437 20.7132 26.464L11.352 13.5787C10.8733 12.9182 11.0194 11.9954 11.6789 11.5157C12.3402 11.0379 13.2621 11.1831 13.7418 11.8426L21.9225 23.1042L30.3214 11.8281C30.8098 11.1754 31.7336 11.0399 32.3882 11.5263C33.0419 12.0137 33.1775 12.9384 32.6901 13.5931L23.0924 26.4784C22.8136 26.8523 22.3743 27.0725 21.9081 27.0725Z" fill="#FEBD19"/>
<path d="M32.481 59.5545H30.5122C29.8422 59.5545 29.2568 59.1036 29.0847 58.4567L20.4714 25.9723C20.2628 25.184 20.7319 24.3756 21.5202 24.166C22.3114 23.9593 23.1169 24.4275 23.3265 25.2148L31.4928 56.0159L38.5045 29.1581C38.7102 28.3688 39.5139 27.894 40.306 28.1026C41.0952 28.3083 41.5672 29.1148 41.3615 29.904L33.9095 58.4509C33.7403 59.1008 33.1529 59.5545 32.481 59.5545Z" fill="#FEBD19"/>
<path d="M54.1353 50.5548C54.0161 50.5548 53.8959 50.5404 53.7748 50.5106L50.0939 49.5877C49.3037 49.3897 48.8231 48.587 49.0211 47.7959C49.2192 47.0047 50.0209 46.5289 50.813 46.723L54.4938 47.6459C55.284 47.8439 55.7647 48.6466 55.5666 49.4378C55.3984 50.1078 54.7966 50.5548 54.1353 50.5548Z" fill="#FEBD19"/>
<path d="M49.0532 56.6047C48.7293 56.6047 48.4034 56.499 48.1304 56.2798L45.8185 54.4264C45.1821 53.9169 45.0802 52.9873 45.5906 52.3509C46.1001 51.7145 47.0278 51.6098 47.6661 52.1231L49.978 53.9765C50.6144 54.486 50.7163 55.4155 50.2059 56.0519C49.9146 56.4153 49.4858 56.6047 49.0532 56.6047Z" fill="#FEBD19"/>
<path d="M54.7222 31.0078H36.8247C34.1599 31.0078 31.9922 28.8401 31.9922 26.1753V8.27779C31.9922 5.61305 34.1599 3.44531 36.8247 3.44531H54.7222C57.3869 3.44531 59.5547 5.61305 59.5547 8.27779V26.1753C59.5547 28.8401 57.3869 31.0078 54.7222 31.0078ZM36.8247 6.39844C35.7884 6.39844 34.9453 7.24151 34.9453 8.27779V26.1753C34.9453 27.2116 35.7884 28.0547 36.8247 28.0547H54.7222C55.7585 28.0547 56.6016 27.2116 56.6016 26.1753V8.27779C56.6016 7.24151 55.7585 6.39844 54.7222 6.39844H36.8247Z" fill="#FEBD19"/>
<path d="M50.5953 22.6406C50.2127 22.6406 49.8301 22.4926 49.5408 22.1975C48.9698 21.6149 48.9794 20.6796 49.5619 20.1095C50.6097 19.0828 51.1875 17.7091 51.1875 16.2422C51.1875 13.2573 48.7583 10.8281 45.7734 10.8281C42.7886 10.8281 40.3594 13.2573 40.3594 16.2422C40.3594 17.7091 40.9371 19.0828 41.9849 20.1095C42.5675 20.6796 42.5771 21.6149 42.0061 22.1975C41.4351 22.78 40.5007 22.7887 39.9181 22.2186C38.2983 20.6315 37.4062 18.5089 37.4062 16.2422C37.4062 11.6289 41.1601 7.875 45.7734 7.875C50.3867 7.875 54.1406 11.6289 54.1406 16.2422C54.1406 18.5089 53.2485 20.6315 51.6287 22.2186C51.3413 22.5003 50.9683 22.6406 50.5953 22.6406Z" fill="#FEBD19"/>
<path d="M45.7734 26.5781C44.9583 26.5781 44.2969 25.9167 44.2969 25.1016V22.1484C44.2969 21.3333 44.9583 20.6719 45.7734 20.6719C46.5886 20.6719 47.25 21.3333 47.25 22.1484V25.1016C47.25 25.9167 46.5886 26.5781 45.7734 26.5781Z" fill="#FEBD19"/>
<path d="M45.7734 18.7031C47.1326 18.7031 48.2344 17.6013 48.2344 16.2422C48.2344 14.883 47.1326 13.7812 45.7734 13.7812C44.4143 13.7812 43.3125 14.883 43.3125 16.2422C43.3125 17.6013 44.4143 18.7031 45.7734 18.7031Z" fill="#FEBD19"/>
</svg>
