<svg width="65" height="63" viewBox="0 0 65 63" fill="none" xmlns="http://www.w3.org/2000/svg">
<path d="M30.1713 23.2032V11.9809C32.797 11.3063 34.7431 8.91905 34.7431 6.08572C34.7431 2.72998 32.0131 0 28.6574 0C25.3018 0 22.5719 2.72998 22.5719 6.08572C22.5719 8.91905 24.518 11.3061 27.1434 11.9807V23.203C23.9591 23.6822 21.2553 25.6485 19.7642 28.37L13.1048 23.1931C13.2677 22.7347 13.3571 22.2415 13.3571 21.728C13.3571 19.3077 11.3879 17.3385 8.96761 17.3385C6.54729 17.3385 4.57812 19.3077 4.57812 21.728C4.57812 24.1483 6.54729 26.1175 8.96761 26.1175C9.7694 26.1175 10.5209 25.9003 11.1685 25.5234L18.6959 31.3751C18.5849 31.9749 18.5239 32.5918 18.5239 33.2232C18.5239 35.4719 19.2611 37.5511 20.5052 39.234L11.9941 47.7451C11.4029 48.3364 11.4029 49.295 11.9941 49.8861C12.2898 50.1816 12.6774 50.3295 13.0648 50.3295C13.4522 50.3295 13.8397 50.1818 14.1355 49.8861L22.6466 41.375C23.9443 42.3344 25.4779 42.9923 27.1434 43.243V54.4903C25.4668 55.1084 24.2679 56.7221 24.2679 58.6105C24.2679 61.0308 26.2371 63 28.6574 63C31.0777 63 33.0469 61.0308 33.0469 58.6105C33.0469 56.7219 31.848 55.1082 30.1713 54.4903V43.2432C35.0435 42.5102 38.7908 38.2964 38.7908 33.2234C38.7908 28.15 35.0433 23.9361 30.1713 23.2032ZM8.96761 23.0897C8.21668 23.0897 7.60605 22.4789 7.60605 21.7282C7.60605 20.9775 8.21668 20.3666 8.96761 20.3666C9.71853 20.3666 10.3292 20.9775 10.3292 21.7282C10.3292 22.4789 9.71833 23.0897 8.96761 23.0897ZM25.5996 6.08572C25.5996 4.39957 26.9712 3.02792 28.6572 3.02792C30.3431 3.02792 31.715 4.39957 31.715 6.08572C31.715 7.77187 30.3431 9.14352 28.6572 9.14352C26.9712 9.14352 25.5996 7.77187 25.5996 6.08572ZM28.6574 59.9721C27.9065 59.9721 27.2958 59.3612 27.2958 58.6105C27.2958 57.9535 27.7635 57.4036 28.3837 57.2766C28.4725 57.293 28.5637 57.3027 28.6574 57.3027C28.7511 57.3027 28.8423 57.293 28.9311 57.2766C29.5512 57.4036 30.0189 57.9535 30.0189 58.6105C30.0189 59.3612 29.4081 59.9721 28.6574 59.9721ZM28.6574 40.3285C24.7395 40.3285 21.5521 37.1409 21.5521 33.223C21.5521 32.5316 21.6532 31.8637 21.8381 31.2312C21.848 31.1999 21.8573 31.1688 21.8649 31.1372C22.7582 28.234 25.4649 26.1175 28.6574 26.1175C32.5753 26.1175 35.7629 29.3051 35.7629 33.223C35.7629 37.1411 32.5753 40.3285 28.6574 40.3285Z" fill="#FEBD19"/>
<path d="M58.6188 18.5234C55.263 18.5234 52.5331 21.2534 52.5331 24.6092C52.5331 24.7656 52.5409 24.92 52.5526 25.0734L41.6041 28.8065C40.8126 29.0762 40.3897 29.9367 40.6596 30.728C40.8741 31.3576 41.4624 31.7538 42.0924 31.7538C42.2545 31.7538 42.4192 31.7276 42.5811 31.6725L53.5292 27.9397C54.6177 29.5974 56.492 30.6951 58.619 30.6951C61.9745 30.6951 64.7045 27.9651 64.7045 24.6094C64.7043 21.2536 61.9743 18.5234 58.6188 18.5234ZM58.6188 27.6672C56.9326 27.6672 55.561 26.2955 55.561 24.6094C55.561 22.9232 56.9328 21.5516 58.6188 21.5516C60.3047 21.5516 61.6764 22.9232 61.6764 24.6094C61.6764 26.2953 60.3047 27.6672 58.6188 27.6672Z" fill="#FEBD19"/>
<path d="M6.08572 49.7031C2.72998 49.7031 0 52.4333 0 55.7889C0 59.1446 2.72998 61.8746 6.08572 61.8746C9.44127 61.8746 12.1712 59.1446 12.1712 55.7889C12.1714 52.4333 9.44127 49.7031 6.08572 49.7031ZM6.08572 58.8469C4.39957 58.8469 3.02792 57.4752 3.02792 55.789C3.02792 54.1029 4.39978 52.7313 6.08572 52.7313C7.77167 52.7313 9.14332 54.1029 9.14332 55.789C9.14352 57.475 7.77187 58.8469 6.08572 58.8469Z" fill="#FEBD19"/>
</svg>
