<svg width="63" height="63" viewBox="0 0 63 63" fill="none" xmlns="http://www.w3.org/2000/svg">
<g clip-path="url(#clip0_2556_7991)">
<path d="M47.1805 52.0046C47.4053 52.1162 47.6531 52.1735 47.9041 52.1719C49.3265 52.1719 50.9162 50.4148 51.8416 48.9087C52.8998 47.1959 53.3575 45.552 53.0622 44.5184C53.005 44.2969 52.9018 44.09 52.7593 43.9111C52.6169 43.7322 52.4383 43.5852 52.2353 43.4799C52.0105 43.3683 51.7627 43.311 51.5118 43.3125C50.0894 43.3125 48.4996 45.0696 47.5743 46.5757C46.5161 48.2885 46.0584 49.9325 46.3537 50.966C46.4106 51.1876 46.5137 51.3947 46.6562 51.5736C46.7987 51.7526 46.9774 51.8995 47.1805 52.0046ZM49.2477 47.6142C49.7336 46.7679 50.3867 46.0294 51.1673 45.4437C51.0033 46.3098 50.6687 47.1347 50.1829 47.8702C49.6974 48.7154 49.0442 49.4524 48.2634 50.0358C48.4279 49.1714 48.7625 48.3483 49.2477 47.6142Z" fill="#FEBD19"/>
<path d="M30.0234 42.7187C30.0234 39.7164 28.8308 36.837 26.7078 34.7141C24.5848 32.5911 21.7055 31.3984 18.7031 31.3984C15.7008 31.3984 12.8214 32.5911 10.6985 34.7141C8.57548 36.837 7.38281 39.7164 7.38281 42.7187C7.38369 44.7297 7.92969 46.7028 8.96273 48.4281C11.8076 53.9898 16.9411 61.5695 17.3299 62.1651C17.4574 62.4165 17.652 62.6277 17.8923 62.7753C18.1325 62.9228 18.4089 63.001 18.6908 63.001C18.9727 63.001 19.2491 62.9228 19.4894 62.7753C19.7296 62.6277 19.9242 62.4165 20.0517 62.1651C20.4602 61.5646 25.5888 53.9948 28.4189 48.4281C29.4606 46.7053 30.0151 44.732 30.0234 42.7187ZM26.7405 47.4437L26.7061 47.5028C24.2452 52.3262 19.8548 58.9412 18.7031 60.659C17.5465 58.9412 13.1611 52.3312 10.7002 47.5028L10.6657 47.4437C9.80631 46.0175 9.35197 44.3839 9.35156 42.7187C9.35156 40.2386 10.3368 37.86 12.0906 36.1062C13.8443 34.3524 16.2229 33.3672 18.7031 33.3672C21.1833 33.3672 23.5619 34.3524 25.3157 36.1062C27.0694 37.86 28.0547 40.2386 28.0547 42.7187C28.0543 44.3839 27.5999 46.0175 26.7405 47.4437Z" fill="#FEBD19"/>
<path d="M18.7031 37.4062C17.7297 37.4062 16.7781 37.6949 15.9687 38.2357C15.1593 38.7766 14.5284 39.5452 14.1559 40.4446C13.7834 41.344 13.6859 42.3336 13.8758 43.2883C14.0657 44.2431 14.5345 45.1201 15.2228 45.8084C15.9112 46.4968 16.7882 46.9655 17.7429 47.1554C18.6977 47.3453 19.6873 47.2479 20.5866 46.8753C21.486 46.5028 22.2547 45.872 22.7955 45.0626C23.3363 44.2532 23.625 43.3016 23.625 42.3281C23.625 41.6818 23.4977 41.0418 23.2503 40.4446C23.003 39.8475 22.6405 39.3049 22.1834 38.8478C21.7264 38.3908 21.1838 38.0283 20.5866 37.7809C19.9895 37.5336 19.3495 37.4062 18.7031 37.4062ZM18.7031 45.2812C18.1191 45.2812 17.5481 45.1081 17.0625 44.7836C16.5768 44.4591 16.1983 43.9978 15.9748 43.4582C15.7513 42.9186 15.6928 42.3249 15.8067 41.752C15.9207 41.1791 16.202 40.653 16.615 40.24C17.028 39.8269 17.5542 39.5457 18.127 39.4317C18.6999 39.3178 19.2936 39.3763 19.8332 39.5998C20.3729 39.8233 20.8341 40.2018 21.1586 40.6875C21.4831 41.1731 21.6563 41.7441 21.6563 42.3281C21.6563 43.1113 21.3451 43.8625 20.7913 44.4163C20.2375 44.9701 19.4863 45.2812 18.7031 45.2812Z" fill="#FEBD19"/>
<path d="M18.6944 9.60323L18.6947 9.60329L18.6956 9.59558C18.8725 8.09453 18.8043 6.5749 18.4937 5.09607C21.2016 3.75699 24.1008 2.84619 27.0878 2.39609C27.0768 2.84233 27.0343 3.28729 26.9605 3.72761C26.8986 3.86593 26.7814 4.00658 26.6208 4.14666C26.4569 4.28957 26.2535 4.42704 26.032 4.55661C25.589 4.81572 25.084 5.03735 24.6996 5.20493C24.6994 5.20504 24.6991 5.20514 24.6989 5.20525L24.5834 5.25335C23.2565 5.76724 22.0317 6.5133 20.9664 7.45658L20.9663 7.45648L20.9626 7.46011C20.5414 7.87376 20.265 8.29155 20.1424 8.71177C20.0192 9.13423 20.0535 9.55273 20.2429 9.96026C20.2915 10.0676 20.3574 10.1664 20.4378 10.2526L20.4376 10.2528L20.4438 10.2584C20.705 10.4953 21.0117 10.6765 21.3453 10.7909C21.6777 10.905 22.0297 10.9503 22.3801 10.9242C23.524 10.9232 25.2247 10.4542 27.6561 8.80266C27.97 8.6254 28.578 8.32649 29.2612 8.08276C29.9485 7.83754 30.699 7.65294 31.2998 7.695C31.3889 7.70599 31.479 7.70587 31.5681 7.69465L31.5682 7.69525L31.579 7.69268C32.8574 7.38602 34.0296 6.74027 34.9719 5.82342C35.8921 4.92806 36.5599 3.80653 36.9088 2.57202C37.6533 2.71097 38.3893 2.87633 39.1175 3.04656L39.1969 3.06512L39.231 2.99108C39.5114 2.38347 39.8641 1.81194 40.2815 1.2889L40.375 1.17182L40.231 1.13042C32.3768 -1.12782 23.9532 -0.255368 16.7285 3.56461L16.6441 3.60925L16.6848 3.69564C16.8233 3.9896 16.9469 4.29038 17.055 4.59683L17.055 4.59689C17.4191 5.62674 17.6084 6.71019 17.6153 7.80248C17.6153 9.51513 17.1579 11.1967 16.2903 12.6734L16.2902 12.6733L16.2881 12.6775L16.0912 13.0515L15.918 13.3805L16.2329 13.1828C16.8655 12.7854 17.4102 12.2629 17.8335 11.6474C18.2568 11.0318 18.5498 10.3362 18.6944 9.60323ZM31.4965 2.06481C32.5686 2.06586 33.6399 2.12581 34.7054 2.24437C34.4399 3.00735 33.9988 3.69787 33.4168 4.25976C32.8099 4.84576 32.0685 5.27385 31.2577 5.50656C30.2065 5.47511 29.091 5.79165 28.2079 6.132C27.337 6.46761 26.683 6.82992 26.5258 6.91707L26.5164 6.92224L26.5164 6.92215L26.5124 6.92457L26.4484 6.96394L26.4484 6.96384L26.4444 6.96656C24.734 8.13619 23.5422 8.57486 22.8027 8.69825C23.6037 8.08072 24.49 7.58142 25.4344 7.2162L25.4345 7.21628L25.4382 7.21464L25.5514 7.16543L25.5525 7.16496C25.5767 7.15409 25.6013 7.14309 25.6261 7.13197C26.1613 6.89226 26.8245 6.59521 27.4289 6.19683C28.0613 5.78004 28.6393 5.24606 28.9406 4.53877L28.9435 4.53201L28.9453 4.5249C29.1497 3.74439 29.2489 2.94023 29.2405 2.13374C29.9993 2.09641 30.7436 2.06481 31.4965 2.06481Z" fill="#FEBD19" stroke="#FEBD19" stroke-width="0.2"/>
<path d="M6.69375 20.9539C6.80867 21.1679 6.97943 21.3466 7.18786 21.4713C7.39629 21.5959 7.63461 21.6617 7.87746 21.6617C8.12032 21.6617 8.35863 21.5959 8.56706 21.4713C8.7755 21.3466 8.94625 21.1679 9.06117 20.9539C11.0794 17.9917 12.9471 14.9297 14.6573 11.7795C15.3725 10.5799 15.75 9.20916 15.75 7.8125C15.75 5.72392 14.9203 3.72088 13.4435 2.24403C11.9666 0.767185 9.96358 -0.0625 7.875 -0.0625C5.78642 -0.0625 3.78338 0.767185 2.30653 2.24403C0.829685 3.72088 1.55429e-07 5.72392 1.55429e-07 7.8125C-0.000279668 9.2092 0.377274 10.58 1.09266 11.7795C2.80443 14.9298 4.67383 17.9918 6.69375 20.9539ZM7.875 1.97516C9.43191 1.9673 10.9283 2.57758 12.0357 3.67202C13.143 4.76646 13.7708 6.2556 13.7812 7.8125C13.782 8.86341 13.4961 9.89463 12.9544 10.7952L12.9199 10.8542C11.4384 13.7532 8.90859 17.6267 7.875 19.2017C6.84141 17.6267 4.31156 13.7532 2.83008 10.8345L2.79563 10.7755C2.25733 9.88067 1.97158 8.85673 1.96875 7.8125C1.97916 6.2556 2.60697 4.76646 3.71432 3.67202C4.82168 2.57758 6.31809 1.9673 7.875 1.97516Z" fill="#FEBD19"/>
<path d="M7.875 11.3203C8.55642 11.3203 9.22253 11.1183 9.78911 10.7397C10.3557 10.3611 10.7973 9.82301 11.0581 9.19347C11.3188 8.56392 11.3871 7.87118 11.2541 7.20285C11.1212 6.53453 10.793 5.92063 10.3112 5.4388C9.82937 4.95696 9.21547 4.62883 8.54715 4.49589C7.87882 4.36295 7.18608 4.43118 6.55654 4.69195C5.92699 4.95272 5.3889 5.39431 5.01033 5.96089C4.63175 6.52747 4.42969 7.19358 4.42969 7.875C4.42969 8.78876 4.79267 9.66508 5.4388 10.3112C6.08492 10.9573 6.96125 11.3203 7.875 11.3203ZM7.875 6.39844C8.16704 6.39844 8.45251 6.48504 8.69533 6.64728C8.93815 6.80953 9.12741 7.04014 9.23917 7.30995C9.35092 7.57975 9.38016 7.87664 9.32319 8.16307C9.26622 8.44949 9.12559 8.71259 8.91909 8.91909C8.71259 9.12559 8.44949 9.26622 8.16306 9.32319C7.87664 9.38017 7.57975 9.35093 7.30994 9.23917C7.04014 9.12741 6.80953 8.93815 6.64728 8.69534C6.48504 8.45252 6.39844 8.16704 6.39844 7.875C6.39844 7.48339 6.554 7.10782 6.83091 6.83091C7.10782 6.554 7.48339 6.39844 7.875 6.39844Z" fill="#FEBD19"/>
<path d="M55.125 42.8267C55.3663 42.8206 55.602 42.7522 55.809 42.628C56.016 42.5038 56.1873 42.3281 56.3063 42.118C58.3245 39.1557 60.1922 36.0937 61.9024 32.9436C62.6193 31.7444 62.9985 30.3737 63 28.9766C63 26.888 62.1703 24.8849 60.6935 23.4081C59.2166 21.9312 57.2136 21.1016 55.125 21.1016C53.0364 21.1016 51.0334 21.9312 49.5565 23.4081C48.0797 24.8849 47.25 26.888 47.25 28.9766C47.25 30.3732 47.6275 31.7439 48.3427 32.9436C50.0544 36.0938 51.9238 39.1559 53.9437 42.118C54.0627 42.3281 54.234 42.5038 54.441 42.628C54.648 42.7522 54.8837 42.8206 55.125 42.8267ZM50.0456 31.9543C49.5048 31.0552 49.2189 30.0258 49.2188 28.9766C49.2188 27.4101 49.841 25.9078 50.9486 24.8002C52.0563 23.6926 53.5586 23.0703 55.125 23.0703C56.6914 23.0703 58.1937 23.6926 59.3014 24.8002C60.409 25.9078 61.0312 27.4101 61.0312 28.9766C61.032 30.0275 60.7461 31.0587 60.2044 31.9592L60.1699 32.0183C58.6884 34.9173 56.1586 38.7908 55.125 40.3658C54.0914 38.8105 51.5616 34.9517 50.0801 32.038L50.0456 31.9543Z" fill="#FEBD19"/>
<path d="M58.5703 29.0391C58.5703 28.3576 58.3682 27.6915 57.9897 27.125C57.6111 26.5584 57.073 26.1168 56.4435 25.856C55.8139 25.5952 55.1212 25.527 54.4529 25.66C53.7845 25.7929 53.1706 26.121 52.6888 26.6029C52.207 27.0847 51.8788 27.6986 51.7459 28.3669C51.613 29.0352 51.6812 29.728 51.9419 30.3575C52.2027 30.9871 52.6443 31.5252 53.2109 31.9037C53.7775 32.2823 54.4436 32.4844 55.125 32.4844C56.0388 32.4844 56.9151 32.1214 57.5612 31.4753C58.2073 30.8291 58.5703 29.9528 58.5703 29.0391ZM53.6484 29.0391C53.6484 28.747 53.735 28.4615 53.8973 28.2187C54.0595 27.9759 54.2901 27.7867 54.5599 27.6749C54.8298 27.5631 55.1266 27.5339 55.4131 27.5909C55.6995 27.6478 55.9626 27.7885 56.1691 27.995C56.3756 28.2015 56.5162 28.4646 56.5732 28.751C56.6302 29.0374 56.6009 29.3343 56.4892 29.6041C56.3774 29.8739 56.1882 30.1045 55.9453 30.2668C55.7025 30.429 55.417 30.5156 55.125 30.5156C54.7334 30.5156 54.3578 30.3601 54.0809 30.0832C53.804 29.8062 53.6484 29.4307 53.6484 29.0391Z" fill="#FEBD19"/>
<path d="M37.2629 18.2911L37.172 18.2818L37.1545 18.3715C37.0267 19.0259 36.821 19.6628 36.5417 20.2683L36.481 20.3998L36.6255 20.4099C37.3943 20.4638 38.1039 20.5676 38.7072 20.7445C39.3109 20.9215 39.8012 21.1696 40.1393 21.5073C40.343 21.7195 40.4952 21.9757 40.5843 22.256C40.6736 22.5367 40.6971 22.8341 40.6532 23.1253L40.6531 23.1261C40.6344 23.2573 40.5206 23.4586 40.1996 23.62C39.8788 23.7812 39.3564 23.8987 38.5423 23.8574L38.5423 23.8573H38.5373H38.397C36.5288 23.7638 35.4497 23.6754 34.8238 23.5972L34.7587 23.589L34.7253 23.6456C34.3564 24.2703 33.9876 24.8848 33.6338 25.4549L33.5545 25.5827L33.703 25.6064C35.2236 25.8496 36.7592 25.9882 38.2989 26.0211L38.2989 26.0211H38.301H38.4362C39.9263 26.1001 41.112 25.7781 41.9061 25.0608C42.4227 24.6129 42.748 23.9841 42.8153 23.3037C42.888 22.7008 42.8236 22.0892 42.6271 21.5145C42.4305 20.9395 42.1067 20.4163 41.6797 19.984L41.6796 19.9839C40.6456 18.9398 39.0464 18.4739 37.2629 18.2911Z" fill="#FEBD19" stroke="#FEBD19" stroke-width="0.2"/>
<path d="M29.0379 28.0498C29.2651 28.0455 29.4873 27.982 29.6824 27.8654C29.8775 27.7489 30.0388 27.5834 30.1502 27.3853C30.4062 26.9965 33.064 22.995 34.5799 20.0369C35.1507 19.065 35.4546 17.9595 35.4608 16.8323C35.4671 15.7052 35.1755 14.5964 34.6155 13.6181C34.0555 12.6399 33.2471 11.827 32.2719 11.2616C31.2968 10.6962 30.1897 10.3984 29.0625 10.3984C27.9353 10.3984 26.8282 10.6962 25.8531 11.2616C24.8779 11.827 24.0695 12.6399 23.5095 13.6181C22.9495 14.5964 22.6579 15.7052 22.6642 16.8323C22.6704 17.9595 22.9743 19.065 23.5451 20.0369C25.0216 22.9901 27.6942 27.0063 27.9748 27.3902C28.0825 27.5804 28.2363 27.7405 28.4221 27.8558C28.6079 27.971 28.8196 28.0377 29.0379 28.0498ZM25.2333 19.0624C24.8323 18.39 24.6167 17.6234 24.6084 16.8405C24.6002 16.0577 24.7995 15.2867 25.1861 14.606C25.5728 13.9252 26.1329 13.3591 26.8095 12.9653C27.4861 12.5715 28.255 12.364 29.0379 12.364C29.8208 12.364 30.5896 12.5715 31.2662 12.9653C31.9428 13.3591 32.503 13.9252 32.8896 14.606C33.2763 15.2867 33.4756 16.0577 33.4673 16.8405C33.459 17.6234 33.2435 18.39 32.8425 19.0624L32.808 19.1215C31.7302 21.2773 29.9337 24.1123 29.0379 25.4904C28.1421 24.1123 26.3456 21.2773 25.2677 19.1215L25.2333 19.0624Z" fill="#FEBD19"/>
<path d="M45.6443 17.0494C45.7517 17.2512 45.9119 17.4199 46.1078 17.5376C46.3038 17.6553 46.5281 17.7175 46.7566 17.7175C46.9852 17.7175 47.2095 17.6553 47.4054 17.5376C47.6014 17.4199 47.7616 17.2512 47.869 17.0494C48.1249 16.6605 50.7827 12.6591 52.2987 9.70101C52.8695 8.72904 53.1733 7.62354 53.1796 6.49639C53.1858 5.36924 52.8942 4.26044 52.3342 3.28221C51.7743 2.30398 50.9658 1.49103 49.9907 0.925647C49.0156 0.36026 47.9084 0.0625 46.7813 0.0625C45.6541 0.0625 44.5469 0.36026 43.5718 0.925647C42.5967 1.49103 41.7882 2.30398 41.2283 3.28221C40.6683 4.26044 40.3767 5.36924 40.3829 6.49639C40.3892 7.62354 40.693 8.72904 41.2638 9.70101C42.7305 12.664 45.3884 16.6655 45.6443 17.0494ZM46.7566 1.96382C47.5431 1.97228 48.3135 2.18768 48.9903 2.58837C49.667 2.98906 50.2264 3.56089 50.612 4.24636C50.9977 4.93184 51.196 5.70677 51.1871 6.49323C51.1782 7.27968 50.9623 8.04992 50.5613 8.72648L50.5268 8.78554C49.4489 10.9413 47.6524 13.7763 46.7566 15.1544C45.8609 13.7763 44.0644 10.9413 42.9865 8.78554L42.952 8.72648C42.551 8.04992 42.3351 7.27968 42.3262 6.49323C42.3173 5.70677 42.5156 4.93184 42.9013 4.24636C43.2869 3.56089 43.8462 2.98906 44.523 2.58837C45.1998 2.18768 45.9702 1.97228 46.7566 1.96382Z" fill="#FEBD19"/>
<path d="M46.7578 8.85938C47.2445 8.85938 47.7203 8.71505 48.125 8.44463C48.5297 8.17422 48.8452 7.78988 49.0314 7.3402C49.2177 6.89052 49.2664 6.39571 49.1715 5.91833C49.0765 5.44096 48.8421 5.00246 48.498 4.65829C48.1538 4.31413 47.7153 4.07974 47.2379 3.98479C46.7605 3.88983 46.2657 3.93857 45.8161 4.12483C45.3664 4.31109 44.982 4.62652 44.7116 5.03122C44.4412 5.43591 44.2969 5.91171 44.2969 6.39844C44.2969 7.05112 44.5561 7.67707 45.0177 8.13859C45.4792 8.6001 46.1051 8.85938 46.7578 8.85938ZM46.7578 5.90625C46.8552 5.90625 46.9503 5.93512 47.0313 5.9892C47.1122 6.04328 47.1753 6.12015 47.2125 6.21009C47.2498 6.30002 47.2595 6.39899 47.2405 6.49446C47.2215 6.58994 47.1747 6.67763 47.1058 6.74647C47.037 6.8153 46.9493 6.86218 46.8538 6.88117C46.7584 6.90016 46.6594 6.89041 46.5695 6.85316C46.4795 6.81591 46.4027 6.75282 46.3486 6.67188C46.2945 6.59094 46.2656 6.49578 46.2656 6.39844C46.2656 6.2679 46.3175 6.14271 46.4098 6.05041C46.5021 5.95811 46.6273 5.90625 46.7578 5.90625Z" fill="#FEBD19"/>
<path d="M31.5 16.7344C31.5 16.2476 31.3557 15.7719 31.0853 15.3672C30.8148 14.9625 30.4305 14.647 29.9808 14.4608C29.5311 14.2745 29.0363 14.2258 28.559 14.3207C28.0816 14.4157 27.6431 14.6501 27.2989 14.9942C26.9547 15.3384 26.7204 15.7769 26.6254 16.2543C26.5305 16.7316 26.5792 17.2265 26.7655 17.6761C26.9517 18.1258 27.2671 18.5102 27.6718 18.7806C28.0765 19.051 28.5523 19.1953 29.0391 19.1953C29.6917 19.1953 30.3177 18.936 30.7792 18.4745C31.2407 18.013 31.5 17.3871 31.5 16.7344ZM28.5469 16.7344C28.5469 16.637 28.5757 16.5419 28.6298 16.4609C28.6839 16.38 28.7608 16.3169 28.8507 16.2797C28.9406 16.2424 29.0396 16.2327 29.1351 16.2516C29.2306 16.2706 29.3183 16.3175 29.3871 16.3863C29.4559 16.4552 29.5028 16.5429 29.5218 16.6384C29.5408 16.7338 29.531 16.8328 29.4938 16.9227C29.4565 17.0127 29.3934 17.0895 29.3125 17.1436C29.2316 17.1977 29.1364 17.2266 29.0391 17.2266C28.9085 17.2266 28.7833 17.1747 28.691 17.0824C28.5987 16.9901 28.5469 16.8649 28.5469 16.7344Z" fill="#FEBD19"/>
<path d="M61.2637 21.4672L61.5315 21.6828L61.4211 21.3572C59.9597 17.048 57.585 13.1052 54.4592 9.79849L54.3555 9.68873L54.2949 9.82711C54.1816 10.0863 54.055 10.3395 53.9156 10.5857L53.9156 10.5857L53.9137 10.5893L53.904 10.6081C53.7247 10.9571 53.5366 11.3232 53.3344 11.6891L53.2999 11.7515L53.3476 11.8044C55.5034 14.1969 57.2531 16.9259 58.5275 19.8834L58.5444 19.9225L58.5842 19.9374C59.5529 20.3018 60.4574 20.8182 61.2637 21.4672Z" fill="#FEBD19" stroke="#FEBD19" stroke-width="0.2"/>
<path d="M4.06945 20.5706C3.42425 22.1989 2.92566 23.8815 2.57958 25.5982L4.06945 20.5706ZM4.06945 20.5706L3.3853 19.5173L4.06945 20.5706ZM5.96241 46.1184L5.95901 46.1059L5.95258 46.0948C2.78744 40.6015 1.50067 34.2262 2.28663 27.9363C2.65181 27.765 3.05042 27.6761 3.45421 27.6761C3.87584 27.6761 4.29182 27.773 4.67 27.9595L4.66998 27.9595L4.67259 27.9607C4.91343 28.0709 5.11987 28.2444 5.26996 28.4627C5.41868 28.6789 5.50656 28.9311 5.52448 29.1928C5.39864 30.6816 5.41872 32.1792 5.58444 33.6641L5.58442 33.6641L5.58467 33.666C5.72611 34.7417 6.19351 35.7483 6.92403 36.5504L7.01832 36.6539L7.08565 36.5311C7.41745 35.9259 7.79637 35.3477 8.21891 34.8019L8.26327 34.7446L8.22263 34.6846C7.96557 34.3052 7.80253 33.87 7.74698 33.415C7.59686 32.0501 7.58212 30.6737 7.70296 29.3059L7.70301 29.3059L7.70319 29.3029C7.70555 29.2619 7.70558 29.2207 7.70328 29.1797C7.68566 28.5205 7.48774 27.8786 7.13101 27.3239C6.7741 26.7689 6.27188 26.3224 5.67895 26.0329C4.75289 25.5689 3.7048 25.411 2.68538 25.5796C3.02997 23.8819 3.52423 22.2181 4.16241 20.6075L4.18143 20.5595L4.15331 20.5162L3.46917 19.4629L3.46917 19.4629L3.46861 19.462L3.03116 18.8034L2.84471 18.509L2.7453 18.352L2.66904 18.5215C-0.0666946 24.5992 -0.810673 31.3863 0.543484 37.9123C1.89764 44.4383 5.28058 50.3691 10.2086 54.8565L10.3616 54.731C9.26955 52.9158 8.19298 51.0379 7.31837 49.3231L7.31854 49.323L7.31537 49.3176C6.72348 48.3164 6.26844 47.2404 5.96241 46.1184Z" fill="#FEBD19" stroke="#FEBD19" stroke-width="0.2"/>
<path d="M24.27 59.4682C27.1409 58.9897 31.1344 58.8645 34.5797 60.7807C30.9863 61.1633 27.3522 60.8777 23.8612 59.9375L23.7912 59.9186L23.7515 59.9793C23.6235 60.175 23.5 60.3644 23.381 60.5468C23.1016 60.9751 22.8475 61.3647 22.6199 61.7062L22.5443 61.8197L22.6752 61.8577C27.0529 63.1284 31.6537 63.4371 36.1619 62.7624C40.67 62.0877 44.9789 60.4456 48.7927 57.9489C52.6065 55.4521 55.835 52.1598 58.2566 48.2979C60.6782 44.436 62.2357 40.0959 62.8221 35.5754L62.6359 35.5132C61.5937 37.3518 60.3741 39.3188 59.42 40.7943L59.4132 40.8048L59.4092 40.8167C57.777 45.6712 54.9107 50.0178 51.0916 53.4302C47.2865 56.83 42.666 59.1859 37.6803 60.2689C37.652 60.2402 37.6222 60.2132 37.5909 60.1878C33.8165 57.1177 29.2082 56.7192 25.6313 57.0848L25.5832 57.0897L25.5571 57.1306C25.369 57.4259 25.1862 57.7158 25.0078 57.9987C24.7184 58.4575 24.4405 58.8982 24.1697 59.3151L24.0459 59.5056L24.27 59.4682Z" fill="#FEBD19" stroke="#FEBD19" stroke-width="0.2"/>
<path d="M18.3165 29.5102L18.2889 29.6323H18.4141H18.7042C19.2711 29.6336 19.8373 29.6711 20.3994 29.7446L20.4851 29.7558L20.5086 29.6726C20.7798 28.7118 21.2439 27.8164 21.8725 27.0408C22.5012 26.2652 23.2812 25.6258 24.165 25.1616L24.26 25.1117L24.2036 25.0205C23.8696 24.4802 23.5305 23.9052 23.1909 23.3245L23.1423 23.2414L23.0574 23.2868C21.8675 23.9241 20.8284 24.8095 20.0105 25.8832C19.1926 26.9569 18.6149 28.1938 18.3165 29.5102Z" fill="#FEBD19" stroke="#FEBD19" stroke-width="0.2"/>
</g>
<defs>
<clipPath id="clip0_2556_7991">
<rect width="63" height="63" fill="white"/>
</clipPath>
</defs>
</svg>
