<svg width="63" height="63" viewBox="0 0 63 63" fill="none" xmlns="http://www.w3.org/2000/svg">
<path d="M17.5637 53.7834C21.3102 54.8418 26.2586 55.4247 31.4975 55.4247C36.7363 55.4247 41.6847 54.8419 45.4312 53.7834C50.0147 52.4887 52.3388 50.6143 52.3388 48.2129C52.3388 45.8113 50.0147 43.9372 45.4312 42.6425C43.3368 42.0508 40.8655 41.6086 38.1789 41.3329C43.4401 32.3529 48.6538 22.1849 48.6538 17.1562C48.6538 7.69625 40.9576 0 31.4975 0C22.0373 0 14.3411 7.69625 14.3411 17.1562C14.3411 22.1848 19.5547 32.3525 24.8159 41.3325C22.1293 41.6082 19.6584 42.0507 17.5638 42.6425C12.9803 43.9372 10.6563 45.8114 10.6563 48.2129C10.6561 50.6143 12.9802 52.4886 17.5637 53.7834ZM31.4975 3.69113C38.9223 3.69113 44.9627 9.73153 44.9627 17.1562C44.9627 20.9699 40.244 30.967 32.3403 43.8985C32.0792 44.3256 31.6638 44.3717 31.4973 44.3717C31.331 44.3717 30.9155 44.3256 30.6544 43.8985C22.7507 30.967 18.032 20.97 18.032 17.1562C18.0322 9.73153 24.0726 3.69113 31.4975 3.69113ZM19.2374 46.0146C21.4379 45.4541 24.0745 45.0608 26.9165 44.8562C27.1138 45.1815 27.31 45.5041 27.505 45.8231C28.3621 47.2255 29.8545 48.0625 31.4973 48.0625C33.1403 48.0625 34.6326 47.2254 35.4897 45.8231C35.6847 45.504 35.881 45.1814 36.0783 44.8561C38.9203 45.0607 41.5568 45.4541 43.7574 46.0146C47.1306 46.8737 48.363 47.8409 48.6163 48.2128C48.3628 48.5847 47.1307 49.5519 43.7575 50.411C40.4093 51.2639 36.0551 51.7335 31.4973 51.7335C26.9395 51.7335 22.5854 51.2639 19.2373 50.411C15.8641 49.5519 14.6318 48.5846 14.3785 48.2128C14.632 47.8409 15.8642 46.8739 19.2374 46.0146Z" fill="#FEBD19"/>
<path d="M57.6221 44.1738C56.7284 43.683 55.6065 44.0094 55.1159 44.9027C54.6251 45.7961 54.9514 46.9182 55.8448 47.4088C58.0432 48.6166 59.3041 49.9555 59.3041 51.0822C59.3041 52.4604 57.3515 54.5963 51.871 56.4582C46.4568 58.2979 39.2213 59.3109 31.4976 59.3109C23.7739 59.3109 16.5385 58.2979 11.1242 56.4582C5.64373 54.5964 3.69113 52.4604 3.69113 51.0822C3.69113 49.9555 4.95202 48.6166 7.15045 47.4087C8.04383 46.918 8.37012 45.7959 7.87933 44.9026C7.38853 44.0093 6.2668 43.6829 5.37317 44.1737C2.92202 45.5203 0 47.812 0 51.0822C0 53.589 1.724 57.163 9.93676 59.9532C15.7235 61.9193 23.3806 63.002 31.4976 63.002C39.6147 63.002 47.2718 61.9193 53.0585 59.9532C61.2712 57.163 62.9952 53.589 62.9952 51.0822C62.9952 47.812 60.0732 45.5203 57.6221 44.1738Z" fill="#FEBD19"/>
<path d="M38.3864 15.9742C38.3864 12.1717 35.2926 9.07812 31.4901 9.07812C27.6875 9.07812 24.5938 12.1717 24.5938 15.9742C24.5938 19.7768 27.6875 22.8704 31.4901 22.8704C35.2926 22.8704 38.3864 19.7769 38.3864 15.9742ZM28.2851 15.9742C28.2851 14.2071 29.7229 12.7695 31.4901 12.7695C33.2572 12.7695 34.695 14.2071 34.695 15.9742C34.695 17.7412 33.2572 19.179 31.4901 19.179C29.7229 19.179 28.2851 17.7414 28.2851 15.9742Z" fill="#FEBD19"/>
</svg>
