<svg width="63" height="63" viewBox="0 0 63 63" fill="none" xmlns="http://www.w3.org/2000/svg">
<path d="M58.6589 19.8942C54.0028 9.00703 43.342 1.96875 31.5 1.96875C25.0622 1.96875 18.8803 4.05562 13.7812 7.875V3.9375C13.7812 2.85469 12.8953 1.96875 11.8125 1.96875C10.7297 1.96875 9.84375 2.85469 9.84375 3.9375V11.8125C9.84375 12.7181 10.4541 13.5056 11.3302 13.7222L19.2052 15.6909C19.3627 15.7303 19.53 15.75 19.6875 15.75C20.5734 15.75 21.3708 15.1495 21.5972 14.2636C21.863 13.2103 21.2231 12.1373 20.16 11.8716L16.3012 10.9069C20.6916 7.66828 25.9875 5.90625 31.4902 5.90625C41.7572 5.90625 50.9906 12.0094 55.0266 21.4495C56.3948 24.6291 57.0839 28.0055 57.0839 31.5C57.0839 34.9945 56.3948 38.3709 55.0266 41.5505C54.5934 42.5545 55.0561 43.7063 56.0602 44.1394C56.3161 44.2477 56.5819 44.2969 56.8378 44.2969C57.6056 44.2969 58.3242 43.8539 58.6491 43.1058C60.2241 39.4341 61.0214 35.5261 61.0214 31.5C61.0214 27.4739 60.2241 23.5659 58.6491 19.8942H58.6589Z" fill="#FEBD19"/>
<path d="M51.6678 49.2766L43.7928 47.3078C42.7395 47.0421 41.6666 47.6819 41.4008 48.745C41.135 49.7983 41.7748 50.8713 42.838 51.1371L46.6967 52.1018C42.3064 55.3403 37.0105 57.1024 31.5078 57.1024C21.2408 57.1024 12.0073 50.9993 7.97141 41.5591C6.60313 38.3796 5.91406 35.0031 5.91406 31.5086C5.91406 28.0141 6.60313 24.6377 7.97141 21.4581C8.40453 20.4541 7.94187 19.3024 6.93781 18.8692C5.93375 18.446 4.78203 18.8988 4.34891 19.9028C2.77391 23.5745 1.97656 27.4825 1.97656 31.5086C1.97656 35.5347 2.77391 39.4427 4.34891 43.1144C9.005 54.0016 19.6658 61.0399 31.5078 61.0399C37.9456 61.0399 44.1275 58.953 49.2266 55.1336V59.0711C49.2266 60.1539 50.1125 61.0399 51.1953 61.0399C52.2781 61.0399 53.1641 60.1539 53.1641 59.0711V51.1961C53.1641 50.2905 52.5538 49.503 51.6777 49.2864L51.6678 49.2766Z" fill="#FEBD19"/>
<path d="M27.5616 41.3409C28.0637 41.3409 28.5657 41.144 28.9496 40.7601L45.684 24.0257C46.4518 23.2579 46.4518 22.0077 45.684 21.2399C44.9162 20.4721 43.666 20.4721 42.8982 21.2399L27.5518 36.5863L21.0648 30.0993C20.297 29.3315 19.0468 29.3315 18.279 30.0993C17.5112 30.8671 17.5112 32.1173 18.279 32.8851L26.154 40.7601C26.5379 41.144 27.0399 41.3409 27.542 41.3409H27.5616Z" fill="#FEBD19"/>
</svg>
